<mxfile host="app.diagrams.net" modified="2023-11-21T17:53:59.892Z" agent="Mozilla/5.0 (Windows NT 10.0; Win64; x64) AppleWebKit/537.36 (KHTML, like Gecko) Chrome/119.0.0.0 Safari/537.36" etag="Af9ELg27kt2-WWsaSnja" version="22.1.3" type="device">
  <diagram name="PÃ¡gina-1" id="a6L32ZuIqHjSAdEMQ7RN">
    <mxGraphModel dx="1400" dy="712" grid="1" gridSize="10" guides="1" tooltips="1" connect="1" arrows="1" fold="1" page="1" pageScale="1" pageWidth="827" pageHeight="1169" math="0" shadow="0">
      <root>
        <mxCell id="0" />
        <mxCell id="1" parent="0" />
        <mxCell id="UHu01_EQ3j50kvxCU8yQ-9" value="" style="edgeStyle=orthogonalEdgeStyle;rounded=0;orthogonalLoop=1;jettySize=auto;html=1;strokeColor=#A8201A;labelBackgroundColor=none;fontColor=default;" edge="1" parent="1" source="UHu01_EQ3j50kvxCU8yQ-7" target="UHu01_EQ3j50kvxCU8yQ-8">
          <mxGeometry relative="1" as="geometry" />
        </mxCell>
        <mxCell id="UHu01_EQ3j50kvxCU8yQ-7" value="&lt;i style=&quot;&quot;&gt;Obtencion de datos&lt;/i&gt;" style="rounded=1;whiteSpace=wrap;html=1;glass=0;fillColor=#FAE5C7;strokeColor=#0F8B8D;labelBackgroundColor=none;fontColor=#143642;" vertex="1" parent="1">
          <mxGeometry x="20" y="30" width="120" height="60" as="geometry" />
        </mxCell>
        <mxCell id="UHu01_EQ3j50kvxCU8yQ-44" value="" style="edgeStyle=orthogonalEdgeStyle;rounded=0;orthogonalLoop=1;jettySize=auto;html=1;strokeColor=#A8201A;labelBackgroundColor=none;fontColor=default;" edge="1" parent="1" source="UHu01_EQ3j50kvxCU8yQ-8" target="UHu01_EQ3j50kvxCU8yQ-12">
          <mxGeometry relative="1" as="geometry" />
        </mxCell>
        <mxCell id="UHu01_EQ3j50kvxCU8yQ-8" value="Visualizacion de datos" style="rounded=1;whiteSpace=wrap;html=1;fillColor=#FAE5C7;strokeColor=#0F8B8D;labelBackgroundColor=none;fontColor=#143642;" vertex="1" parent="1">
          <mxGeometry x="190" y="30" width="120" height="60" as="geometry" />
        </mxCell>
        <mxCell id="UHu01_EQ3j50kvxCU8yQ-15" value="" style="edgeStyle=orthogonalEdgeStyle;rounded=0;orthogonalLoop=1;jettySize=auto;html=1;strokeColor=#A8201A;labelBackgroundColor=none;fontColor=default;" edge="1" parent="1" source="UHu01_EQ3j50kvxCU8yQ-12" target="UHu01_EQ3j50kvxCU8yQ-14">
          <mxGeometry relative="1" as="geometry" />
        </mxCell>
        <mxCell id="UHu01_EQ3j50kvxCU8yQ-12" value="Limpieza de datos" style="rounded=1;whiteSpace=wrap;html=1;fillColor=#FAE5C7;strokeColor=#0F8B8D;labelBackgroundColor=none;fontColor=#143642;" vertex="1" parent="1">
          <mxGeometry x="360" y="30" width="120" height="60" as="geometry" />
        </mxCell>
        <mxCell id="UHu01_EQ3j50kvxCU8yQ-17" value="" style="edgeStyle=orthogonalEdgeStyle;rounded=0;orthogonalLoop=1;jettySize=auto;html=1;strokeColor=#A8201A;labelBackgroundColor=none;fontColor=default;" edge="1" parent="1" source="UHu01_EQ3j50kvxCU8yQ-14" target="UHu01_EQ3j50kvxCU8yQ-16">
          <mxGeometry relative="1" as="geometry" />
        </mxCell>
        <mxCell id="UHu01_EQ3j50kvxCU8yQ-14" value="Pre-procesamiento (pre-processing)" style="rounded=1;whiteSpace=wrap;html=1;fillColor=#FAE5C7;strokeColor=#0F8B8D;labelBackgroundColor=none;fontColor=#143642;" vertex="1" parent="1">
          <mxGeometry x="520" y="30" width="120" height="60" as="geometry" />
        </mxCell>
        <mxCell id="UHu01_EQ3j50kvxCU8yQ-19" value="" style="edgeStyle=orthogonalEdgeStyle;rounded=0;orthogonalLoop=1;jettySize=auto;html=1;strokeColor=#A8201A;labelBackgroundColor=none;fontColor=default;" edge="1" parent="1" source="UHu01_EQ3j50kvxCU8yQ-16" target="UHu01_EQ3j50kvxCU8yQ-18">
          <mxGeometry relative="1" as="geometry" />
        </mxCell>
        <mxCell id="UHu01_EQ3j50kvxCU8yQ-16" value="Validacion&amp;nbsp; cruzada&lt;br&gt;" style="rounded=1;whiteSpace=wrap;html=1;rotation=0;fillColor=#FAE5C7;strokeColor=#0F8B8D;labelBackgroundColor=none;fontColor=#143642;" vertex="1" parent="1">
          <mxGeometry x="670" y="30" width="120" height="60" as="geometry" />
        </mxCell>
        <mxCell id="UHu01_EQ3j50kvxCU8yQ-21" value="" style="edgeStyle=orthogonalEdgeStyle;rounded=0;orthogonalLoop=1;jettySize=auto;html=1;strokeColor=#A8201A;labelBackgroundColor=none;fontColor=default;" edge="1" parent="1" source="UHu01_EQ3j50kvxCU8yQ-18" target="UHu01_EQ3j50kvxCU8yQ-20">
          <mxGeometry relative="1" as="geometry" />
        </mxCell>
        <mxCell id="UHu01_EQ3j50kvxCU8yQ-18" value="Entrenamiento modelo&amp;nbsp;Naive Bayes" style="whiteSpace=wrap;html=1;rounded=1;fillColor=#FAE5C7;strokeColor=#0F8B8D;labelBackgroundColor=none;fontColor=#143642;" vertex="1" parent="1">
          <mxGeometry x="670" y="190" width="120" height="60" as="geometry" />
        </mxCell>
        <mxCell id="UHu01_EQ3j50kvxCU8yQ-23" value="" style="edgeStyle=orthogonalEdgeStyle;rounded=0;orthogonalLoop=1;jettySize=auto;html=1;strokeColor=#A8201A;labelBackgroundColor=none;fontColor=default;" edge="1" parent="1" source="UHu01_EQ3j50kvxCU8yQ-20" target="UHu01_EQ3j50kvxCU8yQ-22">
          <mxGeometry relative="1" as="geometry" />
        </mxCell>
        <mxCell id="UHu01_EQ3j50kvxCU8yQ-20" value="Prediccion com el&amp;nbsp; modelo" style="whiteSpace=wrap;html=1;rounded=1;fillColor=#FAE5C7;strokeColor=#0F8B8D;labelBackgroundColor=none;fontColor=#143642;" vertex="1" parent="1">
          <mxGeometry x="520" y="190" width="120" height="60" as="geometry" />
        </mxCell>
        <mxCell id="UHu01_EQ3j50kvxCU8yQ-25" value="" style="edgeStyle=orthogonalEdgeStyle;rounded=0;orthogonalLoop=1;jettySize=auto;html=1;strokeColor=#A8201A;labelBackgroundColor=none;fontColor=default;" edge="1" parent="1" source="UHu01_EQ3j50kvxCU8yQ-22" target="UHu01_EQ3j50kvxCU8yQ-24">
          <mxGeometry relative="1" as="geometry" />
        </mxCell>
        <mxCell id="UHu01_EQ3j50kvxCU8yQ-22" value="Visualizacion de datos por matriz de confucion" style="rounded=1;whiteSpace=wrap;html=1;fillColor=#FAE5C7;strokeColor=#0F8B8D;labelBackgroundColor=none;fontColor=#143642;" vertex="1" parent="1">
          <mxGeometry x="360" y="190" width="120" height="60" as="geometry" />
        </mxCell>
        <mxCell id="UHu01_EQ3j50kvxCU8yQ-27" value="" style="edgeStyle=orthogonalEdgeStyle;rounded=0;orthogonalLoop=1;jettySize=auto;html=1;strokeColor=#A8201A;labelBackgroundColor=none;fontColor=default;" edge="1" parent="1" source="UHu01_EQ3j50kvxCU8yQ-24" target="UHu01_EQ3j50kvxCU8yQ-26">
          <mxGeometry relative="1" as="geometry" />
        </mxCell>
        <mxCell id="UHu01_EQ3j50kvxCU8yQ-24" value="&lt;div style=&quot;&quot;&gt;&lt;br&gt;&lt;/div&gt;" style="rounded=1;whiteSpace=wrap;html=1;align=center;fillColor=#FAE5C7;strokeColor=#0F8B8D;labelBackgroundColor=none;fontColor=#143642;" vertex="1" parent="1">
          <mxGeometry x="170" y="137.5" width="140" height="165" as="geometry" />
        </mxCell>
        <mxCell id="UHu01_EQ3j50kvxCU8yQ-29" value="" style="edgeStyle=orthogonalEdgeStyle;rounded=0;orthogonalLoop=1;jettySize=auto;html=1;strokeColor=#A8201A;labelBackgroundColor=none;fontColor=default;" edge="1" parent="1" source="UHu01_EQ3j50kvxCU8yQ-26" target="UHu01_EQ3j50kvxCU8yQ-28">
          <mxGeometry relative="1" as="geometry" />
        </mxCell>
        <mxCell id="UHu01_EQ3j50kvxCU8yQ-26" value="Hacemos prediccion con los clasificadores" style="rounded=1;whiteSpace=wrap;html=1;fillColor=#FAE5C7;strokeColor=#0F8B8D;labelBackgroundColor=none;fontColor=#143642;" vertex="1" parent="1">
          <mxGeometry x="20" y="202" width="120" height="60" as="geometry" />
        </mxCell>
        <mxCell id="UHu01_EQ3j50kvxCU8yQ-31" value="" style="edgeStyle=orthogonalEdgeStyle;rounded=0;orthogonalLoop=1;jettySize=auto;html=1;strokeColor=#A8201A;labelBackgroundColor=none;fontColor=default;" edge="1" parent="1" source="UHu01_EQ3j50kvxCU8yQ-28" target="UHu01_EQ3j50kvxCU8yQ-30">
          <mxGeometry relative="1" as="geometry" />
        </mxCell>
        <mxCell id="UHu01_EQ3j50kvxCU8yQ-28" value="Observamos los resultados de los clasificadores con matriz de conficion" style="whiteSpace=wrap;html=1;rounded=1;fillColor=#FAE5C7;strokeColor=#0F8B8D;labelBackgroundColor=none;fontColor=#143642;" vertex="1" parent="1">
          <mxGeometry x="20" y="345" width="120" height="60" as="geometry" />
        </mxCell>
        <mxCell id="UHu01_EQ3j50kvxCU8yQ-30" value="Se hace reduccion de dimensionalidad&amp;nbsp; (PCA&amp;nbsp; y T-SNE)" style="whiteSpace=wrap;html=1;rounded=1;fillColor=#FAE5C7;strokeColor=#0F8B8D;labelBackgroundColor=none;fontColor=#143642;" vertex="1" parent="1">
          <mxGeometry x="180" y="345" width="120" height="60" as="geometry" />
        </mxCell>
        <mxCell id="UHu01_EQ3j50kvxCU8yQ-32" value="DecisionTree" style="text;html=1;align=center;verticalAlign=middle;resizable=0;points=[];autosize=1;strokeColor=none;fillColor=none;labelBackgroundColor=none;fontColor=#143642;" vertex="1" parent="1">
          <mxGeometry x="195" y="135" width="90" height="30" as="geometry" />
        </mxCell>
        <mxCell id="UHu01_EQ3j50kvxCU8yQ-33" value="GaussianNB" style="text;html=1;align=center;verticalAlign=middle;resizable=0;points=[];autosize=1;strokeColor=none;fillColor=none;labelBackgroundColor=none;fontColor=#143642;" vertex="1" parent="1">
          <mxGeometry x="195" y="155" width="90" height="30" as="geometry" />
        </mxCell>
        <mxCell id="UHu01_EQ3j50kvxCU8yQ-34" value="KNeighbors" style="text;html=1;align=center;verticalAlign=middle;resizable=0;points=[];autosize=1;strokeColor=none;fillColor=none;labelBackgroundColor=none;fontColor=#143642;" vertex="1" parent="1">
          <mxGeometry x="195" y="175" width="90" height="30" as="geometry" />
        </mxCell>
        <mxCell id="UHu01_EQ3j50kvxCU8yQ-40" value="AdaBoost" style="text;html=1;strokeColor=none;fillColor=none;align=center;verticalAlign=middle;whiteSpace=wrap;rounded=0;labelBackgroundColor=none;fontColor=#143642;" vertex="1" parent="1">
          <mxGeometry x="210" y="250" width="60" height="30" as="geometry" />
        </mxCell>
        <mxCell id="UHu01_EQ3j50kvxCU8yQ-41" value="MLP" style="text;html=1;strokeColor=none;fillColor=none;align=center;verticalAlign=middle;whiteSpace=wrap;rounded=0;labelBackgroundColor=none;fontColor=#143642;" vertex="1" parent="1">
          <mxGeometry x="210" y="265" width="60" height="30" as="geometry" />
        </mxCell>
        <mxCell id="UHu01_EQ3j50kvxCU8yQ-42" value="SVCLinear" style="text;html=1;strokeColor=none;fillColor=none;align=center;verticalAlign=middle;whiteSpace=wrap;rounded=0;labelBackgroundColor=none;fontColor=#143642;" vertex="1" parent="1">
          <mxGeometry x="210" y="280" width="60" height="30" as="geometry" />
        </mxCell>
        <mxCell id="UHu01_EQ3j50kvxCU8yQ-45" value="QuadraticDiscriminant" style="text;html=1;strokeColor=none;fillColor=none;align=center;verticalAlign=middle;whiteSpace=wrap;rounded=0;labelBackgroundColor=none;fontColor=#143642;" vertex="1" parent="1">
          <mxGeometry x="210" y="195" width="60" height="30" as="geometry" />
        </mxCell>
        <mxCell id="UHu01_EQ3j50kvxCU8yQ-46" value="SVC" style="text;html=1;strokeColor=none;fillColor=none;align=center;verticalAlign=middle;whiteSpace=wrap;rounded=0;labelBackgroundColor=none;fontColor=#143642;" vertex="1" parent="1">
          <mxGeometry x="210" y="217" width="60" height="30" as="geometry" />
        </mxCell>
        <mxCell id="UHu01_EQ3j50kvxCU8yQ-49" value="RandomForest" style="text;html=1;strokeColor=none;fillColor=none;align=center;verticalAlign=middle;whiteSpace=wrap;rounded=0;fontColor=#143642;labelBackgroundColor=none;" vertex="1" parent="1">
          <mxGeometry x="1490" y="1500" width="60" height="30" as="geometry" />
        </mxCell>
        <mxCell id="UHu01_EQ3j50kvxCU8yQ-52" value="RandomForest" style="text;html=1;strokeColor=none;fillColor=none;align=center;verticalAlign=middle;whiteSpace=wrap;rounded=0;fontColor=#143642;labelBackgroundColor=none;" vertex="1" parent="1">
          <mxGeometry x="210" y="233" width="60" height="30" as="geometry" />
        </mxCell>
        <mxCell id="UHu01_EQ3j50kvxCU8yQ-53" value="Implementamos 9 clasificadores" style="shape=callout;whiteSpace=wrap;html=1;perimeter=calloutPerimeter;strokeColor=#0F8B8D;fontColor=#143642;fillColor=#FAE5C7;labelBackgroundColor=none;" vertex="1" parent="1">
          <mxGeometry x="145" y="92" width="190" height="50" as="geometry" />
        </mxCell>
      </root>
    </mxGraphModel>
  </diagram>
</mxfile>
